<svg data-bbox="20.1 23.5 159.9 152.9" viewBox="0 0 200 200" height="200" width="200" xmlns="http://www.w3.org/2000/svg" data-type="color">
    <g>
        <path d="M172.5 99.6c0 40.9-33.2 74-74.1 74s-74.1-33.1-74.1-74 33.2-74 74.1-74 74.1 33.1 74.1 74z" fill="#ffe0d9" data-color="1"/>
        <path d="M162.3 39.2l.3-.4c13.8-2.7 17.4-15.3 17.4-15.3-15.4 4-17.6 14.8-17.7 15.3l-.2.3c-.5.6-1 1.2-1.4 1.8-3.7 2.5-5.3 5.3-5.7 6-.6.6-1.3 1.1-1.9 1.7l-5.1 4.2c-1.7 1.4-3.3 2.9-4.9 4.4l-.7.7c5.8-8.6 3.2-17.8 3.2-17.8-9.7 10-8 19.2-7.3 21.7-1.6 1.5-3.2 3-4.8 4.4-3 2.6-6.1 5.1-9.2 7.6 7.2-7.5 6.3-17.1 6.3-17.1-12.2 8.9-11.1 19.1-10.8 20.6-.6.4-1.1.8-1.7 1.2-1.8 1.2-3.7 2.4-5.5 3.6-1.9 1.2-3.7 2.4-5.4 3.9-.9.7-1.7 1.5-2.4 2.4l-.2.2c.4-1.6.6-3.3.7-4.9.3-3.4.3-6.7 1.3-10 .5-1.6 1-3.2 1.4-4.9.4-1.6.7-3.3.9-5 .2-1.7.3-3.4.6-5 .1-.8.3-1.7.5-2.5s.5-1.6.9-2.4c-.4.8-.7 1.5-1 2.3-.3.8-.5 1.6-.6 2.5-.3 1.7-.5 3.3-.8 5-.2 1.7-.5 3.3-1 4.9-.5 1.6-1.1 3.2-1.6 4.8-.5 1.6-.9 3.3-1.1 5-.2 1.7-.4 3.4-.6 5-.2 1.7-.5 3.3-.9 4.9-.3 1-.7 2-1.2 2.8-1.3 1.6-2.6 3.1-4 4.5-.7.8-1.5 1.5-2.3 2.2-.8.7-1.7 1.3-2.5 2-1.9 1.4-3.9 2.7-5.8 3.9 7.8-6.6 8-15.9 8-15.9-13.5 7.5-13.3 18-13.3 19.2-3.7 2.3-7.5 4.5-11.1 7.1-.9.7-1.8 1.3-2.7 2-.9.7-1.7 1.5-2.6 2.3-1.6 1.6-3 3.4-4.4 5.1-1.3 1.8-2.6 3.5-4 5.2-.4.4-.7.8-1.1 1.3.8-1.5 1.6-2.9 2.5-4.3 1-1.5 2.1-3 3.2-4.4 1.2-1.4 2.4-2.7 3.8-4 2.6-2.6 5.4-5.1 7.7-8.1s3.9-6.4 5.2-9.9c1.3-3.5 2.3-7 3.5-10.5.1-.2.2-.4.2-.7 14.1-1.8 18.5-14.2 18.5-14.2-11.3 2.2-15.9 8.4-17.7 11.8.9-2.4 1.9-4.8 3.2-7.2 1.7-3.3 3.6-6.5 5.4-9.7l1.5-2.7c15.1-8.1 14.5-24 14.5-24-15.3 9.7-14.7 22-14.6 23.8l-1.6 2.7c-1 1.8-2.1 3.5-3.1 5.2 3.9-10.7-2-19.6-2-19.6-6.4 13.1-1.2 21.5 0 23.1-.2.3-.3.6-.5.8-1.8 3.2-3.3 6.7-4.5 10.2-.5 1.3-.9 2.6-1.3 3.9.9-11.9-7.9-18.8-7.9-18.8-2.1 14.1 4.7 20.4 6.7 22-.4 1.2-.9 2.4-1.3 3.5-1.4 3.4-3 6.7-5.3 9.5-1.9 2.4-4.3 4.6-6.6 6.7 8.1-11.5 3.7-23.8 3.7-23.8-11.1 13.2-7.8 24.3-6.8 26.8-.7.7-1.3 1.4-2 2.1-1.2 1.4-2.4 2.9-3.4 4.5-2 3-3.7 6.1-5 9.5-2.8 2.9-5.7 5.7-8.5 8.7-1.5 1.6-3 3.3-4.4 5.1-1.4 1.8-2.7 3.6-3.8 5.5-2.4 3.8-4.4 7.7-6.8 11.2-2.4 3.5-5.2 6.7-8.7 8.9l1.8 2.8c4-2.6 7-6.2 9.5-10s4.5-7.7 6.7-11.4c1.1-1.9 2.3-3.6 3.6-5.4 1.3-1.7 2.7-3.4 4.1-5 .5-.5 1-1 1.4-1.5L64.3 133c14 8.9 27.4 1.3 27.4 1.3-10-5.8-18-5.3-22.8-4l3.7-2.2 13.9-8.2c4.6-2.8 9.2-5.5 14-7.8 4.8-2.3 9.9-4 15.1-5.4 1.9-.5 3.7-1 5.6-1.5 11.5 8.4 23.2 2.3 23.2 2.3-5.5-3.5-10.4-4.5-14.2-4.6.3-.1.6-.2.9-.2 4.2-1.1 8.4-2.4 12.6-3.7 13.7 2.7 21.8-7.4 21.8-7.4-15.3-2.2-21.6 6.3-22.2 7.2-4.1 1.2-8.2 2.4-12.3 3.4-.9.2-1.8.4-2.7.7 8.2-3.4 10.8-11.2 10.8-11.2-12.7 2.7-15.5 11-15.9 12.4-2.6.6-5.3 1.2-7.9 1.9-5.2 1.3-10.4 3-15.3 5.2s-9.6 4.9-14.2 7.6l-14 8-20.1 11.5c1-1 2-2.1 3-3.1 1.5-1.6 3-3.3 4.4-5 1.4-1.7 2.7-3.6 4-5.3 1.3-1.8 2.6-3.5 4.1-5 .7-.8 1.5-1.5 2.4-2.1.8-.7 1.7-1.4 2.6-2 .5-.4 1-.7 1.5-1.1 12.7 5.4 22.6-2.8 22.6-2.8-7.5-2.7-13.2-2.2-17.1-1 5-3.2 10.1-6.2 14.9-9.8.5-.4 1-.7 1.4-1.1 12.6 5.1 22.3-2.9 22.3-2.9-8.7-3.2-15.1-2-18.9-.3l.2-.2c1.5-1.6 2.9-3.4 4.3-5.1.7-.8 1.4-1.7 2.1-2.5.7-.8 1.5-1.6 2.3-2.3 1.6-1.4 3.4-2.7 5.2-3.9.7-.4 1.4-.9 2-1.3 12.4 5.9 22.6-1.7 22.6-1.7-7.9-3.3-13.9-2.8-17.9-1.6 1.4-1 2.7-2 4-3.1 2-1.6 4-3.3 6-4.9 12.6 6.3 23.1-1.5 23.1-1.5-10.4-4.4-17.6-2.1-21.1-.2.7-.6 1.4-1.2 2.1-1.9 2.2-2 4.3-4 6.4-6l.1.2c3.2-1.5 6.8-2.2 10.4-2.7 3.6-.4 7.2-.4 10.9-.4-3.6-.3-7.3-.5-10.9-.3-2.9.2-5.8.5-8.6 1.4.5-.5 1-.9 1.4-1.4l4.8-4.5c1.6-1.5 3.3-2.9 5-4.3.7-.6 1.4-1.2 2-1.8 14 .9 20.6-10.3 20.6-10.3-6.7 0-11.5 1.7-14.7 3.7.4-.1.8-.5 1.1-1z" fill="#041354" data-color="2"/>
        <path d="M159.1 29.9C148 40 151.2 50 151.2 50c10.4-8.1 7.9-20.1 7.9-20.1z" fill="#041354" data-color="2"/>
        <path d="M64.2 141.6c-1.8-.4-3.6.8-4 2.5-.4 1.8.8 3.6 2.6 4h.1c1.8.4 3.6-.8 3.9-2.6.3-1.8-.8-3.5-2.6-3.9z" fill="#ff0000" data-color="3"/>
        <path d="M125.8 86.4c-1.8-.4-3.6.8-4 2.5-.4 1.8.8 3.6 2.6 4h.1c1.8.4 3.6-.8 3.9-2.6.3-1.8-.9-3.6-2.6-3.9z" fill="#ff0000" data-color="3"/>
        <path d="M117.5 86.3c-1.8-.4-3.6.8-4 2.5-.4 1.8.8 3.6 2.6 4h.1c1.8.4 3.6-.8 3.9-2.6.3-1.8-.9-3.6-2.6-3.9z" fill="#ff0000" data-color="3"/>
        <path d="M158.2 62.4c-1.8-.4-3.6.8-4 2.5-.4 1.8.8 3.6 2.6 4h.1c1.8.4 3.6-.8 3.9-2.6.3-1.8-.8-3.5-2.6-3.9z" fill="#ff0000" data-color="3"/>
        <path d="M123.6 55.6c.4-1.8-.8-3.6-2.6-4-1.8-.4-3.6.8-4 2.5v.1c-.4 1.8.8 3.5 2.6 3.9 1.9.4 3.6-.7 4-2.5z" fill="#ff0000" data-color="3"/>
        <path d="M109.8 57.2c1.8.4 3.6-.8 4-2.5.4-1.8-.8-3.6-2.6-4h-.1c-1.8-.4-3.6.8-3.9 2.6-.3 1.8.9 3.5 2.6 3.9z" fill="#ff0000" data-color="3"/>
        <path d="M108 59.5c.4-1.8-.8-3.6-2.6-4-1.8-.4-3.6.8-4 2.5v.1c-.4 1.8.8 3.5 2.6 3.9 1.9.4 3.6-.8 4-2.5z" fill="#ff0000" data-color="3"/>
        <path d="M163.3 48.5c-1.8-.4-3.6.8-4 2.5s.8 3.6 2.6 4h.1c1.8.4 3.6-.8 3.9-2.6.3-1.8-.9-3.5-2.6-3.9z" fill="#ff0000" data-color="3"/>
        <path d="M162.6 55.7c-1.8-.4-3.6.8-4 2.5-.4 1.8.8 3.6 2.6 4h.1c1.8.4 3.6-.8 3.9-2.6.3-1.8-.8-3.5-2.6-3.9z" fill="#ff0000" data-color="3"/>
        <path d="M61.2 106.3c.4-1.8-.8-3.6-2.6-4-1.8-.4-3.6.8-4 2.5v.1c-.4 1.8.8 3.5 2.6 3.9 1.9.4 3.6-.7 4-2.5z" fill="#ff0000" data-color="3"/>
        <path d="M61.1 150.8c-1.8-.4-3.6.8-4 2.5s.8 3.6 2.6 4h.1c1.8.4 3.6-.8 3.9-2.6.3-1.7-.9-3.5-2.6-3.9z" fill="#ff0000" data-color="3"/>
        <path d="M50.8 109.8c-1.8-.4-3.6.8-4 2.5s.8 3.6 2.6 4h.1c1.8.3 3.5-.9 3.9-2.7.3-1.7-.8-3.4-2.6-3.8z" fill="#ff0000" data-color="3"/>
        <path d="M107.9 114.3c-.4 1.8.8 3.6 2.6 4 1.8.4 3.6-.8 4-2.5v-.1c.4-1.8-.8-3.5-2.6-3.9-1.9-.4-3.6.7-4 2.5z" fill="#ff0000" data-color="3"/>
        <path d="M112.7 119.7c-1.8-.4-3.6.8-4 2.5-.4 1.8.8 3.6 2.6 4h.1c1.8.4 3.6-.8 3.9-2.6.3-1.8-.8-3.6-2.6-3.9z" fill="#ff0000" data-color="3"/>
        <path d="M107.6 126.8c-1.8-.4-3.6.8-4 2.5-.4 1.8.8 3.6 2.6 4h.1c1.8.4 3.6-.8 3.9-2.6.3-1.8-.8-3.6-2.6-3.9z" fill="#ff0000" data-color="3"/>
        <path d="M133.8 87.1c-1.8-.4-3.6.8-4 2.5-.4 1.8.8 3.6 2.6 4h.1c1.8.4 3.6-.8 3.9-2.6.4-1.8-.8-3.5-2.6-3.9z" fill="#ff0000" data-color="3"/>
    </g>
</svg>
